<?xml version="1.0" encoding="utf-8"?>
<!-- Svg Vector Icons : http://www.onlinewebfonts.com/icon -->
<!DOCTYPE svg PUBLIC "-//W3C//DTD SVG 1.1//EN" "http://www.w3.org/Graphics/SVG/1.1/DTD/svg11.dtd">
<svg version="1.1" xmlns="http://www.w3.org/2000/svg" xmlns:xlink="http://www.w3.org/1999/xlink" x="0px" y="0px" viewBox="0 0 1000 1000" enable-background="new 0 0 1000 1000" xml:space="preserve">
<metadata> Svg Vector Icons : http://www.onlinewebfonts.com/icon </metadata>
<g fill="#fff"><path d="M933.3,463.3L486,23.9c-18.9-18.5-49.5-18.5-68.4,0c-18.9,18.6-18.9,48.8,0,67.4L833.8,500L417.5,908.9c-18.9,18.6-18.9,48.6,0,67.2c18.9,18.6,49.5,18.6,68.4,0l447.3-439.2c10.4-10.1,14.6-23.6,13.7-36.9C947.9,486.8,943.7,473.4,933.3,463.3L933.3,463.3z M596.5,500c1-13.2-3.3-26.6-13.6-36.7L135.6,23.9C116.7,5.4,86.1,5.4,67,23.9c-18.9,18.6-18.8,48.8,0,67.4L483.4,500L67,908.9c-18.8,18.6-18.9,48.6,0,67.2c19.1,18.6,49.7,18.6,68.6,0l447.3-439.2C593.2,526.7,597.4,513.2,596.5,500L596.5,500z"/></g>
</svg>