<?xml version="1.0" encoding="utf-8"?>
<!-- Generator: Adobe Illustrator 19.0.0, SVG Export Plug-In . SVG Version: 6.00 Build 0)  -->
<svg version="1.1" xmlns="http://www.w3.org/2000/svg" xmlns:xlink="http://www.w3.org/1999/xlink" x="0px" y="0px"
	 viewBox="0 0 2118.9 936.5" style="enable-background:new 0 0 2118.9 936.5;" xml:space="preserve">
<style type="text/css">
	.st0{fill:#0057AA;}
	#heart-color{fill:#F03238;}

	<!--.st2{stroke:#000000;stroke-miterlimit:10;}-->
	#outlines{
	fill:#e1e1e1;
	}

</style>

<g id="Layer_1">
	<g id="heart-color">
		<path id="XMLID_47_" class="st1" d="M1327.2,266.7c-0.3-4.5-0.6-9-1-13.6c-2.3-26.4-9.1-51.7-20.4-75.7
			c-19.7-42.1-48.8-75.4-91.7-95.3c-13.9-6.4-28.4-10.9-43.9-11.7c-9.1,0-18.2-0.1-27.3-0.1c-1.9,0.1-3.7-0.1-5.5,0.2
			c-31.4,5.2-59.2,18-82.9,39.3c-24.1,21.7-40.4,48.7-52.9,78.4c-1.4,3.4-2.9,6.8-4.8,10c-8.6,14.1-27.2,15.9-36.4-0.2
			c-2.1-3.6-3.7-7.5-5.4-11.4c-14.9-33.9-34.4-64.6-64.9-86.5C838.9,63.3,775.9,58.1,721,93.9c-32.3,21.1-55.7,50-71.2,85.1
			c-21.5,48.7-26.3,99.9-20.1,152.3c3.7,31.2,12.3,61.3,23.4,90.7c1.4,3.6,2.8,7.2,4.3,10.8c2-0.2,4.1,0.1,5.8,1
			c1.1,0.3,2.3,0.5,3.4,1c2.8,1.2,5.2,3.1,6.6,5.8c0.9,1.7,1.6,3.6,1.9,5.4c0.5,3.1,0.5,5,0.1,8.1c-0.4,2.6-2.6,4.9-4.8,6.4
			c18.9,36.4,43.5,69.2,70.9,100.2c38.6,43.6,78,86.6,116.8,130.1c42.9,48,82.1,98.9,117,153c0.9,1.5,1.9,2.9,3.1,4.6
			c1.3-1.9,2.2-3.2,3-4.4c39.8-67.4,89.1-127.7,140.9-186c36.5-41.1,73-82.1,108.5-124c30.5-35.9,55.3-75.7,72.7-119.7
			c13.4-33.8,22.3-68.8,23.8-105.4C1327.3,295.1,1327.2,280.9,1327.2,266.7z"/>
	</g>
	<g id="outlines">
		<g id="v">
			<polygon id="XMLID_1_" points="244.2,70.6 244.2,602.6 148.1,602.6 28.9,414.6 28.9,414.6 14.5,394.6 83,394.6 82.8,394.2 
				184.2,554.7 184.2,70.6 			"/>
		</g>
		<g id="e">
			<path id="XMLID_9_" d="M245.3,602.2c2.5-26.5,4.3-48.8,5.4-66.7c1.1-17.9,2.3-41.7,3.4-71.4c1.1-29.7,1.7-49.3,1.7-59l-0.1-13.6
				c23.3,0.2,51.5,0.3,84.6,0.3c30.5,0,57.4-0.1,80.7-0.3l-0.3,5.1c-0.1,1.2-0.3,5.7-0.7,13.4l-0.9,16.8c-0.2,3.6-0.3,7.2-0.3,10.9
				c-19.1-0.8-35.1-1.2-48-1.2c-14.2,0-23.8,0-28.8,0.1c-5,0.1-12.8,0.3-23.3,0.7l-1.8,35.5c11.7,0.3,25.2,0.5,40.8,0.5
				c5.5,0,20.3-0.4,44.2-1.1c-1,13.2-1.9,28.9-2.8,47.1c-17.1-0.2-30.2-0.3-39.4-0.3c-13.6,0-28.9,0.4-45.8,1.1l-1.8,37.5h17
				c5,0,15.4-0.2,31.2-0.5l30.6-0.8c4.5-0.1,12.1-0.5,22.8-1.2c-1.2,15.2-2.2,31-3,47.2c-24.1-0.2-50.5-0.3-79.3-0.3l-65.2,0.2
				L245.3,602.2z"/>
		</g>
		<g id="r">
			<path id="XMLID_4_" d="M421.3,602.2c1.8-18.1,3.2-34.4,4.2-48.9c1-14.5,1.9-31.3,2.7-50.5c0.7-19.1,1.3-39.3,1.7-60.6
				c0.4-21.2,0.6-38.1,0.6-50.7c11.6,0.3,21,0.5,28.1,0.5c7.4,0,16.5-0.2,27.2-0.7c10.7-0.5,21.1-0.7,31.2-0.7
				c11.9,0,22.5,0.5,31.8,1.5c7,0.7,13.3,2.2,19,4.5c5.7,2.3,10.5,5,14.4,8.3s7.2,6.9,9.8,10.9c2.6,4,4.6,8.7,6.1,14.1
				c1.4,5.4,2.2,11.2,2.2,17.4c0,6.9-0.8,13.3-2.4,19.4c-1.6,6-4.1,11.7-7.5,17c-3.4,5.3-7.7,9.9-12.8,13.7
				c-5.2,3.9-12.4,7.8-21.7,11.8l7.2,19.6c2,5.5,4.2,11,6.6,16.7l18.7,45.2c0.8,2,2.3,5.8,4.5,11.6c-15.3-0.2-25.6-0.3-30.9-0.3
				c-6.7,0-17.6,0.1-32.9,0.3c-1.5-5.3-4.2-15.3-8.1-29.8c-1.6-6.1-2.9-10.7-4-14c-2.2-7.3-5.5-17.5-9.9-30.7L492.5,484
				c5,1,9.9,1.5,14.8,1.5c6.8,0,12.9-1.1,18.5-3.4c5.5-2.3,9.7-5.8,12.5-10.5c2.8-4.7,4.3-9.7,4.3-15c0-4.4-1.1-8.3-3.2-11.6
				c-2.1-3.3-5.5-5.8-10.1-7.5c-4.6-1.6-11.7-2.5-21.3-2.5c-3.3,0-6.6,0.1-10.1,0.2s-7.5,0.3-12.2,0.4c-1.2,21.1-2.2,46.8-3.2,77.1
				c-0.9,30.3-1.5,60.1-1.8,89.3c-15.5-0.2-25.6-0.3-30.3-0.3C445,601.9,435.3,602,421.3,602.2z"/>
		</g>
		<g id="h">
			<path id="XMLID_21_" d="M1360.5,602.2l5.7-84.2l2.6-61.4l0.7-27.3c0.2-7.9,0.3-15.5,0.3-22.8l-0.1-14.8
				c15.5,0.2,27.1,0.3,34.9,0.3c6,0,16.5-0.1,31.4-0.3c-2.3,29.5-3.9,55.6-4.5,78.2h80.6c0.5-8.4,1-19.9,1.4-34.2
				c0.4-14.4,0.7-24.2,0.7-29.5c0-2.8-0.1-7.6-0.3-14.5l35.1,0.3c3.6,0,14-0.1,31.1-0.3c-3.5,52.9-5.8,92.2-6.8,118
				c-1,25.8-1.5,56.7-1.5,92.7l-32.3-0.3c-4.8,0-16.4,0.1-34.7,0.3c2.5-24.5,4.2-53,5-85.5h-80.7l-2.5,85.5l-34.4-0.3
				C1387.9,601.9,1377.3,602,1360.5,602.2z"/>
		</g>
		<g id="i">
			<path id="XMLID_25_" d="M1764.8,602.2c5.7-82.6,8.5-146.2,8.5-190.7l-0.1-19.9c17.3,0.2,28.9,0.3,34.7,0.3
				c2.7,0,13.3-0.1,31.9-0.3c-1.8,23.1-3.2,45.1-4.3,65.7c-1.4,28.8-2.4,55.7-3,80.8c-0.6,25-0.9,46.4-0.9,64.1l-30.4-0.3
				C1795.3,601.9,1783.1,602,1764.8,602.2z"/>
		</g>
		<g id="i_1_">
			<path id="XMLID_23_" d="M1597.8,602.2c5.7-82.6,8.5-146.2,8.5-190.7l-0.1-19.9c17.3,0.2,28.9,0.3,34.7,0.3
				c2.7,0,13.3-0.1,31.9-0.3c-1.8,23.1-3.2,45.1-4.3,65.7c-1.4,28.8-2.4,55.7-3,80.8c-0.6,25-0.9,46.4-0.9,64.1l-30.4-0.3
				C1628.3,601.9,1616.1,602,1597.8,602.2z"/>
		</g>
		<g id="b">
			<path id="XMLID_2_" d="M590.7,598c-1.2-20.9-2.4-37.5-3.6-49.8c20.5,7.7,39,11.6,55.5,11.6c10.2,0,18.4-2.3,24.7-6.9
				c6.3-4.6,9.4-10.7,9.4-18.4c0-7.5-3.2-13-9.6-16.5c-6.4-3.5-16.3-5.2-29.8-5.2c-8.7,0-16.7,0.6-24,1.7c1.3-16,2.3-31.8,3.2-47.4
				c6.6,1.3,13.5,2,20.8,2c8.3,0,15.1-0.6,20.6-1.8c5.5-1.2,9.6-3.5,12.5-6.9c2.8-3.4,4.3-7.1,4.3-11.1c0-3.6-1.1-6.8-3.4-9.7
				c-2.3-2.9-5.6-4.9-10.1-6.1c-4.5-1.2-10.1-1.8-16.8-1.8c-5.8,0-11.9,0.4-18.4,1.1c-6.5,0.7-15.4,2.4-26.6,4.9l6.9-35.9
				c0.6-3.2,1.1-6.6,1.7-10.2c19.9-2.7,38.2-4,54.8-4c10.8,0,21.2,0.8,31.2,2.5c10,1.6,18.6,4.7,25.7,9c7.1,4.4,12.3,10.1,15.7,17
				c3.3,7,5,14.9,5,23.6c0,5.2-0.6,10.3-1.9,15.1c-1.2,4.8-3.1,9.3-5.7,13.5c-2.6,4.2-5.6,7.8-9.1,11c-3.5,3.2-6.9,5.8-10.2,7.7
				c-3.3,2-7.7,4.2-13.2,6.6c5.8,1.3,10.3,2.7,13.6,4.2c3.3,1.4,6.5,3.5,9.8,6.2c3.3,2.7,6.1,5.9,8.4,9.6c2.3,3.7,4,7.7,5.1,12.3
				c1.1,4.5,1.7,9.4,1.7,14.5c0,10.2-2.1,19.6-6.3,28.2c-4.2,8.6-10.3,15.8-18.4,21.5c-8.1,5.7-17.4,9.8-27.9,12.3
				c-10.5,2.5-21.1,3.7-31.7,3.7c-10.4,0-20.3-0.6-29.7-1.8C615.3,603.3,604,601.1,590.7,598z"/>
		</g>
		<g id="heart-outline">
			<g id="XMLID_17_">
				<g id="XMLID_20_">
					<path id="XMLID_28_" d="M1369.2,268.1v43c-1.9,15.4-3.6,30.9-5.8,46.3c-7.8,55.9-28.6,104.4-55.1,149.8
						c-26.1,44.9-58.1,82.6-90.7,119.7c-33.1,37.6-67.2,73.8-100,111.8c-44.9,52-85.6,108.9-119.9,172.5
						c-10.5,19.4-29,20.6-39.2,1.7c-40.4-74.4-92-135.7-145.1-195.5c-43-48.4-86.4-96.5-128.6-146c-4.5-5.3-8.9-10.8-13.1-16.4
						c6.5,0,16.1-0.1,29-0.4c8.6,0,17.1-0.1,25.7-0.2c2.5,0,6.7,0.4,9.2-0.5c0,0,0.1,0,0.1,0c5.8,6.8,11.6,13.5,17.5,20.1
						c37.1,41.6,75,82,111.7,124.1c40,45.9,77.8,94.7,112.3,148.7c1.3-2,2.3-3.4,3.1-4.8c32.5-54.6,69.9-103.7,109.8-149.8
						c38.8-44.8,78.5-88.4,117.4-133c28.8-33,55.6-68.2,76.7-109.6c29.8-58.5,44.2-121.9,37.1-190.9
						c-12.2-119.3-107-202.2-201.9-177.6c-4.6,1.2-9,2.5-13.4,4.1c-48.3,16.9-83.8,54.7-106.8,112.2c-4.7,11.8-11.9,17.8-22.3,17.7
						c-10-0.1-16.3-6.6-20.9-17.6c-29.3-70.3-75.5-110.6-138.9-119.2c-74.4-10.1-150,47.8-175.4,135.9
						c-21.2,73.6-11.4,145.4,14.9,213.3c-13.7-0.2-40.3-0.8-51.5-0.5c-10.5-33.4-15.7-68.8-18.7-104.8c-0.3-3.6-0.8-7.2-1.3-10.8
						v-43c0.4-1.8,0.9-3.5,1.1-5.3c8.8-114.8,74.2-208.5,164.4-235.3c11.3-3.4,22.9-5.3,34.4-8h33.3c1.6,0.5,3.3,1.1,4.9,1.4
						c58.3,8.2,106.8,39.5,145,94.9c3,4.3,5.8,8.8,9,13.6c1.6-2.5,2.8-4.3,4-6.2c29.5-46.9,67.7-77.7,113.5-93.8
						c13.4-4.7,27.5-6.7,41.3-10h33.3c4.6,1,9.1,2.1,13.7,2.9c89.4,16.1,158.6,94.3,180.1,203.6
						C1365.8,239.9,1367.2,254.1,1369.2,268.1z"/>
				</g>
				<g id="XMLID_27_">
				</g>
			</g>
		</g>
		<g id="p">
			<path id="XMLID_48_" d="M1369.2,267.1v43c-1.9,15.4-3.6,30.9-5.8,46.3c-7.8,55.9-28.6,104.4-55.1,149.8
				c-26.1,44.9-58.1,82.7-90.7,119.7c-16.9,19.1-34,38-51.1,56.8c-0.2,0.2-0.3,0.4-0.5,0.5c-0.1,0.1-0.4,0.3-0.6,0.4
				c-0.1-2.6-0.3-5.2-0.3-7.8v251.7h-59v-706h59v384.1c1-0.2,0.5-0.4,0.7-0.6s0.4-0.4,0.6-0.6c13.7-15.4,27.4-30.8,41-46.4
				c28.8-33,55.6-68.2,76.7-109.6c29.8-58.5,44.2-121.9,37.2-190.9c-12.2-119.3-107-202.2-201.9-177.6c-4.6,1.2-9.2,2.5-13.5,4.1
				l-0.7-58.8v0c10-2.6,20.7-4.3,30.8-6.7h33.3c4.6,1,9.1,2.1,13.7,2.9c89.4,16.1,158.6,94.3,180.1,203.6
				C1365.8,238.9,1367.2,253.1,1369.2,267.1z"/>
		</g>
		<g id="a">
			<polygon id="XMLID_36_" class="st2" points="2070.7,393.1 2070.7,925.1 2010.7,925.1 2010.7,440.4 1908.6,601.1 1840.2,601.1 
				1854.6,581.4 1973.8,393.3 1974,393.1 2040.7,393.1 2040.7,393.1 			"/>
		</g>
		<g id="l">
			<path id="_x3C_path_x3E_" class="st2" d="M1711.8,641c102.5,0,205,0.1,307.5,0.7V625H1748l0.6-29.3l4.6-124.5l3.6-79.6
				c-13.4,0.3-23.7,0.4-30.9,0.4c-10.6,0-22.8-0.1-36.5-0.4c0,25.1-0.5,57.3-1.6,96.6c-1.1,39.3-2.7,79-4.8,118.8
				c-0.5,10-1.2,21.3-2,34C1691.3,641,1701.6,641,1711.8,641z"/>
		</g>
	</g>
</g>
</svg>
